<svg width="426" height="315" viewBox="0 0 426 315" fill="none" xmlns="http://www.w3.org/2000/svg">
<path d="M369.269 97.0531C417.599 145.969 450.94 209.581 401.871 258.116C353.987 305.479 261.243 297.784 183.076 281.222C99.4841 263.511 7.43141 235.516 0.677807 173.112C-7.25032 99.8559 55.0216 26.8782 153.353 6.5873C241.893 -11.6828 315.959 43.0969 369.269 97.0531Z" fill="#69A1AC"/>
<path d="M45.9357 314.136C41.2357 302.036 36.5357 289.936 31.8357 277.836C31.6357 277.336 30.8357 277.536 31.0357 278.036C35.7357 290.136 40.4357 302.236 45.1357 314.336C45.3357 314.836 46.1357 314.636 45.9357 314.136Z" fill="#E4E9FF"/>
<path d="M151.036 293.336C149.136 300.236 147.336 307.236 145.436 314.136C145.336 314.636 146.136 314.936 146.236 314.336C148.136 307.436 149.936 300.436 151.836 293.536C152.036 293.036 151.236 292.736 151.036 293.336Z" fill="#E4E9FF"/>
<path d="M256.336 314.136C252.136 303.736 248.036 293.336 243.836 282.836C243.636 282.336 242.836 282.536 243.036 283.036C247.236 293.436 251.336 303.836 255.536 314.336C255.636 314.836 256.536 314.636 256.336 314.136Z" fill="#E4E9FF"/>
<path d="M250.236 314.036C248.536 310.736 246.736 307.536 245.036 304.236C244.736 303.736 244.036 304.136 244.336 304.636C246.036 307.936 247.836 311.136 249.536 314.436C249.736 314.936 250.536 314.536 250.236 314.036Z" fill="#E4E9FF"/>
<path d="M245.236 280.536C244.636 278.136 243.336 274.136 241.536 274.936C240.436 275.436 240.636 277.236 240.736 278.136C240.836 279.536 241.136 280.936 241.536 282.336C241.036 281.936 237.636 279.636 236.136 279.736C235.836 279.736 235.636 280.136 235.836 280.436C237.536 282.936 239.436 285.436 241.736 287.436C243.136 288.536 244.536 289.136 246.136 288.036C247.836 286.936 248.236 284.936 248.336 283.036C248.436 281.736 248.736 275.836 247.236 275.636C245.536 275.336 245.336 279.836 245.236 280.536Z" fill="#E4E9FF"/>
<path d="M156.436 286.936C154.736 287.836 154.036 290.036 153.636 290.436C153.636 289.836 154.836 286.436 154.036 286.236C153.236 286.036 151.736 288.736 151.236 289.536C151.136 288.636 151.736 285.836 150.936 285.836C150.036 285.836 149.836 286.736 149.736 287.436C149.436 288.936 148.436 296.536 151.436 296.336C152.736 296.236 154.136 294.436 154.836 293.536C155.836 292.236 157.336 290.336 157.436 288.636C157.636 287.736 157.336 286.436 156.436 286.936Z" fill="#E4E9FF"/>
<path d="M34.5356 274.436C33.2356 274.136 34.5357 276.836 34.4357 278.436C33.6357 276.536 30.8357 273.336 29.8357 274.136C28.1357 275.536 30.0356 279.736 30.1356 280.036C30.0356 279.936 27.3356 276.636 27.0356 277.536C26.5356 278.836 31.4357 284.936 32.9357 285.436C35.6357 286.436 36.3356 282.836 36.5356 280.936C36.5356 279.636 36.4356 274.936 34.5356 274.436Z" fill="#E4E9FF"/>
<path d="M40.9358 312.336L36.9358 305.436C36.6358 304.936 35.9358 305.436 36.2358 305.836C37.5358 308.136 38.9358 310.436 40.2358 312.736C40.5358 313.236 41.2358 312.736 40.9358 312.336Z" fill="#E4E9FF"/>
<path d="M252.936 292.136C251.136 290.536 249.336 292.836 248.736 294.636C248.436 294.636 248.236 294.836 248.336 295.136C249.036 297.336 249.736 299.436 250.536 301.636C250.636 301.936 251.036 302.036 251.236 301.836C251.436 301.836 251.636 301.736 251.736 301.536C252.336 299.536 253.036 297.536 253.636 295.536C253.836 294.336 253.936 293.036 252.936 292.136Z" fill="#E4E9FF"/>
<path d="M149.936 299.936C149.736 300.036 149.536 300.136 149.336 300.236C148.736 298.436 147.036 295.236 145.236 297.136C144.336 298.136 144.936 299.636 145.336 300.736C145.836 302.236 147.136 305.436 147.836 306.436C148.336 304.236 149.036 302.136 149.936 299.936Z" fill="#E4E9FF"/>
<path d="M410.435 304.736C409.135 307.836 407.735 310.936 406.435 313.936C406.235 314.436 406.935 314.836 407.135 314.336C408.435 311.236 409.835 308.136 411.135 305.136C411.335 304.736 410.635 304.236 410.435 304.736Z" fill="#E4E9FF"/>
<path d="M290.936 151.936C282.436 141.736 272.736 130.336 264.136 120.236C268.036 117.236 272.036 114.336 276.236 111.736C283.736 120.536 292.936 131.636 300.436 140.536C297.536 144.736 293.936 147.836 290.936 151.936Z" fill="#E4E9FF"/>
<path d="M293.336 144.036C300.536 138.536 313.736 127.836 320.636 122.036C327.836 115.936 343.436 123.436 336.136 129.536C327.236 137.036 314.036 147.936 304.736 154.936C301.636 157.336 295.736 157.436 292.836 154.236C292.136 153.436 291.436 152.736 290.836 151.936C293.736 147.636 290.536 148.336 293.336 144.036Z" fill="#E4E9FF"/>
<path d="M276.236 111.736C272.936 107.036 268.136 99.3359 265.936 99.5359C263.636 99.7359 268.836 103.036 268.736 105.836C268.636 108.636 260.136 97.0359 257.536 97.9359C254.836 98.8359 263.136 103.536 262.336 104.736C261.436 106.036 256.636 98.3359 254.636 99.5359C252.636 100.736 260.436 106.336 259.536 107.536C258.636 108.836 254.036 100.636 252.236 102.836C251.036 104.336 256.436 108.336 257.336 110.436C258.236 112.436 252.336 104.336 251.336 106.236C250.336 108.136 260.936 116.436 264.136 120.236C267.436 124.036 276.236 111.736 276.236 111.736Z" fill="#788BF1"/>
<path d="M267.736 125.736C267.836 125.636 267.836 125.636 267.736 125.736C267.836 125.636 267.836 125.636 267.736 125.736C267.836 125.636 267.836 125.636 267.736 125.736C271.536 121.836 275.336 118.036 279.236 114.436C279.636 114.036 280.136 114.736 279.736 115.136C276.136 118.436 272.736 121.936 269.336 125.436C269.336 125.536 269.236 125.536 269.236 125.636L268.336 126.436C268.036 126.636 267.436 126.036 267.736 125.736Z" fill="#788BF1"/>
<path d="M279.336 115.336C278.236 114.036 277.236 112.836 276.236 111.636C272.136 114.336 268.036 117.136 264.136 120.136C265.636 121.836 267.136 123.636 268.736 125.536C271.836 121.736 275.536 118.536 279.336 115.336Z" fill="#788BF1"/>
<path d="M301.736 142.536C301.436 141.636 301.036 140.836 300.436 140.036C300.136 139.536 299.336 140.036 299.736 140.436C300.236 141.136 300.636 141.936 300.936 142.736C301.036 143.336 301.836 143.136 301.736 142.536Z" fill="#A9CDFF"/>
<path d="M268.936 115.236C267.036 113.436 266.436 110.836 267.236 108.336C267.436 107.836 266.536 107.536 266.436 108.136C265.536 110.936 266.236 113.936 268.336 115.936C268.736 116.236 269.336 115.636 268.936 115.236Z" fill="white"/>
<path d="M132.536 91.0359C125.436 98.7359 116.336 108.736 109.036 116.836C101.136 120.236 87.5355 125.736 79.9355 128.636C71.1355 132.136 75.9355 146.036 84.7355 142.536C95.5355 138.336 105.036 134.636 115.636 129.836C115.836 129.736 115.936 129.636 116.136 129.536C117.436 128.636 118.636 127.336 119.336 126.436C128.936 115.736 134.236 109.336 144.036 98.7359C140.536 95.8359 136.336 93.7359 132.536 91.0359Z" fill="#FF6B57"/>
<path d="M137.635 105.836C139.635 103.636 141.735 101.336 144.035 98.7359C140.435 95.7359 136.235 93.7359 132.435 91.0359C130.835 92.8359 129.135 94.6359 127.335 96.6359C131.035 99.4359 134.235 102.736 137.635 105.836Z" fill="#A9CDFF"/>
<path d="M132.536 91.0359C134.636 88.4359 139.536 83.8359 143.036 83.5359C146.536 83.2359 141.336 85.5359 140.436 88.0359C139.536 90.5359 149.836 83.1359 152.336 84.0359C154.836 84.9359 146.436 87.8359 146.736 89.2359C147.036 90.6359 154.136 86.0359 155.436 87.7359C156.736 89.4359 147.736 92.0359 148.036 93.4359C148.336 94.8359 155.436 88.7359 156.236 91.3359C156.736 93.0359 150.436 95.2359 148.936 96.6359C147.436 98.1359 155.736 94.2359 156.036 96.2359C156.336 98.2359 144.236 100.536 140.036 102.836C135.936 105.236 132.536 91.0359 132.536 91.0359Z" fill="#A9CDFF"/>
<path d="M140.436 89.7359C140.336 89.2359 139.536 89.1359 139.536 89.7359C139.736 91.5359 139.736 94.5359 137.836 95.4359C137.336 95.6359 137.736 96.4359 138.236 96.1359C140.536 95.2359 140.636 91.8359 140.436 89.7359Z" fill="#788BF1"/>
<path d="M108.935 117.236C108.735 118.036 108.435 118.836 108.235 119.636C108.035 120.136 108.935 120.436 109.035 119.836C109.235 119.036 109.535 118.236 109.735 117.436C109.935 116.936 109.035 116.736 108.935 117.236Z" fill="#788BF1"/>
<path d="M138.336 105.936C134.836 102.436 131.436 99.0359 127.936 95.5359C127.536 95.1359 126.936 95.7359 127.336 96.1359C130.836 99.6359 134.236 103.036 137.736 106.536C138.136 106.936 138.736 106.336 138.336 105.936Z" fill="#A9CDFF"/>
<path d="M272.636 263.936C265.036 267.336 256.936 264.636 253.536 256.936C250.136 249.336 252.936 239.236 260.636 236.136C270.236 232.236 277.236 236.736 280.636 244.336C284.036 251.936 280.236 260.536 272.636 263.936Z" fill="#4EDDBB"/>
<path d="M276.236 242.336C277.636 240.936 279.036 239.536 280.336 238.236C281.136 237.436 280.036 236.136 279.236 236.936C277.836 238.336 276.436 239.736 275.136 241.036C274.336 241.736 275.436 243.136 276.236 242.336Z" fill="#4EDDBB"/>
<path d="M278.036 262.736C277.036 261.636 276.036 260.536 274.936 259.336C274.236 258.536 272.836 259.636 273.636 260.436C274.636 261.536 275.636 262.636 276.736 263.836C277.436 264.736 278.836 263.636 278.036 262.736Z" fill="#4EDDBB"/>
<path d="M256.136 244.236C255.136 243.636 254.136 242.936 253.136 242.336C252.836 242.136 252.436 241.936 252.136 241.836C252.036 241.636 251.936 241.436 251.636 241.336C251.336 241.236 251.036 241.136 250.836 241.236C250.436 241.336 250.136 241.636 250.136 242.036C250.036 242.936 251.336 243.336 251.936 243.636C253.136 244.236 254.136 244.936 255.236 245.636C256.036 246.136 257.136 244.736 256.136 244.236Z" fill="#4EDDBB"/>
<path d="M253.636 249.936C252.036 249.936 250.536 250.336 249.136 250.836C248.136 251.236 248.836 252.836 249.836 252.436C251.136 251.936 252.536 251.636 253.936 251.636C255.036 251.636 254.736 249.936 253.636 249.936Z" fill="#4EDDBB"/>
<path d="M251.136 242.436C251.836 241.036 251.136 239.536 250.436 238.336C249.936 237.336 248.336 238.036 248.836 239.036C249.236 239.736 249.836 240.536 249.636 241.436C249.536 241.836 249.236 242.436 248.736 242.236C247.736 241.836 247.036 243.436 248.136 243.836C249.436 244.236 250.636 243.536 251.136 242.436Z" fill="#4EDDBB"/>
<path d="M282.336 237.336C281.836 237.536 281.036 237.836 280.536 237.436C280.336 237.236 280.236 236.936 280.436 236.836C280.836 236.636 280.836 235.936 280.536 235.636C280.236 235.236 279.736 235.236 279.336 235.536C278.236 236.236 278.436 237.736 279.136 238.536C280.136 239.636 281.736 239.336 283.036 238.936C284.136 238.536 283.436 236.936 282.336 237.336Z" fill="#4EDDBB"/>
<path d="M278.036 265.536C277.736 264.836 278.336 264.036 279.036 264.436C279.936 265.036 281.036 263.636 280.036 263.036C279.136 262.436 277.936 262.436 277.036 263.136C276.136 263.836 275.936 265.136 276.436 266.136C276.936 267.236 278.536 266.536 278.036 265.536Z" fill="#4EDDBB"/>
<path d="M248.136 254.536C249.036 253.936 249.836 252.936 249.536 251.836C249.236 250.736 247.936 250.136 246.936 250.836C246.536 251.136 246.536 251.736 246.836 252.036C247.136 252.336 247.436 252.436 247.836 252.236V252.336V252.436C247.636 252.736 247.336 253.036 247.036 253.236C246.636 253.536 246.636 254.136 246.936 254.436C247.236 254.836 247.736 254.836 248.136 254.536Z" fill="#4EDDBB"/>
<path d="M259.636 265.836C260.636 264.436 259.936 262.336 258.136 262.036C257.336 261.936 256.536 262.136 255.936 262.736C255.236 263.436 255.736 264.536 256.736 264.536C257.136 264.536 257.336 264.236 257.436 263.936C258.036 263.736 258.636 264.336 258.236 264.936C257.636 265.736 259.036 266.736 259.636 265.836Z" fill="#4EDDBB"/>
<path d="M271.436 241.536C271.536 241.036 271.436 240.636 270.936 240.436C270.536 240.236 269.936 240.436 269.836 240.936C269.736 241.336 269.236 241.636 268.836 241.436C268.236 241.136 268.336 240.236 268.636 239.836C269.236 238.936 267.836 237.936 267.236 238.836C266.336 240.136 266.436 242.136 267.936 242.936C269.136 243.636 271.036 243.036 271.436 241.536Z" fill="#788BF1"/>
<path d="M271.836 256.436C271.636 256.136 271.536 255.436 271.836 255.136C272.136 254.836 272.536 254.936 272.736 255.236C273.336 256.136 274.736 255.036 274.036 254.136C273.236 253.036 271.636 252.936 270.636 253.736C269.536 254.636 269.636 256.336 270.336 257.436C271.036 258.436 272.436 257.336 271.836 256.436Z" fill="#788BF1"/>
<path d="M260.436 253.236L262.936 252.736C264.036 252.536 263.736 250.836 262.636 251.036C261.736 251.236 260.936 251.336 260.036 251.536C259.336 250.436 257.636 249.936 256.436 249.636C255.336 249.336 254.736 250.936 255.836 251.236C256.536 251.436 258.436 251.836 258.736 252.636C259.036 253.636 257.636 254.336 256.936 254.736C256.036 255.336 257.136 256.636 258.036 256.036C259.136 255.336 260.236 254.436 260.436 253.236Z" fill="#788BF1"/>
<path d="M267.536 245.536C268.336 244.836 268.936 243.936 269.336 242.936C269.736 241.836 268.036 241.236 267.736 242.336C267.436 243.036 267.036 243.736 266.436 244.236C265.636 244.936 266.736 246.336 267.536 245.536Z" fill="#788BF1"/>
<path d="M271.336 253.536C271.136 253.336 270.936 253.236 270.836 252.936C270.636 251.836 268.936 252.136 269.136 253.236C269.236 253.936 269.636 254.636 270.336 255.036C271.236 255.536 272.236 254.136 271.336 253.536Z" fill="#788BF1"/>
<path d="M283.136 252.236C282.636 251.936 282.036 251.436 282.136 250.736C282.136 250.336 282.536 249.836 282.936 249.836C284.036 249.936 284.236 248.136 283.136 248.136C282.036 248.036 281.036 248.736 280.636 249.736C279.636 249.536 278.536 249.636 277.536 249.936C277.136 250.036 276.936 250.736 277.136 251.036C277.336 251.536 277.836 251.636 278.236 251.436C278.936 251.236 279.736 251.236 280.536 251.336C280.836 252.336 281.636 253.136 282.636 253.636C283.536 254.336 284.136 252.736 283.136 252.236Z" fill="#788BF1"/>
<path d="M274.736 235.136C275.436 234.236 274.036 233.236 273.336 234.136C272.736 234.936 271.436 234.536 271.436 233.536C271.536 232.436 269.736 232.236 269.736 233.336C269.636 234.536 270.336 235.736 271.536 236.236C272.736 236.636 274.036 236.136 274.736 235.136Z" fill="#788BF1"/>
<path d="M261.636 241.936C261.136 240.636 260.336 239.436 259.336 238.436C259.636 237.536 259.436 236.436 259.236 235.536C258.936 234.436 257.236 234.736 257.536 235.836C257.736 236.436 258.036 237.436 257.636 238.136C257.436 238.436 256.936 238.736 256.736 238.436C256.136 237.536 254.736 238.636 255.436 239.536C256.136 240.536 257.436 240.536 258.336 239.936C259.036 240.736 259.636 241.636 260.036 242.736C260.436 243.636 262.036 242.936 261.636 241.936Z" fill="#788BF1"/>
<path d="M266.736 265.136C266.536 263.936 265.536 262.936 264.336 262.836C263.136 262.736 261.936 263.536 261.636 264.636C261.236 265.736 262.936 266.336 263.236 265.236C263.536 264.336 264.836 264.336 265.036 265.336C265.236 266.536 266.936 266.236 266.736 265.136Z" fill="#788BF1"/>
<path d="M267.636 184.536C256.136 202.936 234.736 208.836 216.236 197.336C197.736 185.836 189.136 160.136 201.236 142.036C216.236 119.736 237.936 119.036 256.436 130.536C274.936 142.036 279.236 166.036 267.636 184.536Z" fill="#4EDDBB"/>
<path d="M199.736 175.836C197.636 176.536 195.636 177.436 193.636 178.336C192.636 178.836 193.436 180.336 194.436 179.836C196.336 178.936 198.236 178.136 200.136 177.436C201.136 177.136 200.736 175.436 199.736 175.836Z" fill="#4EDDBB"/>
<path d="M267.136 132.436C264.536 134.736 261.936 137.136 259.236 139.436C258.436 140.136 259.536 141.436 260.436 140.736C263.036 138.436 265.636 136.036 268.336 133.736C269.136 132.936 268.036 131.636 267.136 132.436Z" fill="#4EDDBB"/>
<path d="M251.136 203.936C250.436 202.236 249.636 200.636 248.636 199.136C248.036 198.236 246.536 199.036 247.136 199.936C248.136 201.436 248.936 203.136 249.636 204.736C250.036 205.836 251.636 204.936 251.136 203.936Z" fill="#4EDDBB"/>
<path d="M227.936 130.236C227.336 126.936 227.136 123.736 227.236 120.436C227.236 119.336 225.536 119.236 225.536 120.336C225.436 123.836 225.736 127.236 226.336 130.636C226.436 131.736 228.136 131.336 227.936 130.236Z" fill="#4EDDBB"/>
<path d="M229.536 118.336C229.936 117.336 228.236 116.836 227.836 117.836C227.436 118.836 226.236 118.536 225.836 117.736C225.436 116.736 223.836 117.536 224.336 118.536C224.736 119.636 225.836 120.336 227.036 120.236C228.236 120.236 229.136 119.436 229.536 118.336Z" fill="#4EDDBB"/>
<path d="M270.736 132.336C270.136 132.436 268.336 132.236 268.936 131.136C269.436 130.136 268.036 129.236 267.436 130.236C266.836 131.236 267.036 132.436 267.836 133.236C268.636 134.136 269.936 134.236 271.136 133.936C272.236 133.736 271.836 132.136 270.736 132.336Z" fill="#4EDDBB"/>
<path d="M194.836 179.036C194.036 177.636 191.536 177.136 190.136 176.936C189.036 176.736 189.036 178.536 190.036 178.636C190.636 178.736 191.136 178.836 191.636 179.036C192.036 179.136 193.036 179.436 193.136 179.836C193.236 180.136 192.936 180.936 192.736 181.236C192.536 181.836 192.236 182.336 191.836 182.936C191.236 183.836 192.736 184.836 193.336 183.836C194.236 182.736 195.636 180.436 194.836 179.036Z" fill="#4EDDBB"/>
<path d="M251.736 206.236C251.936 206.336 252.136 206.436 252.336 206.536C253.336 206.936 253.836 205.336 252.836 204.836C252.136 204.536 251.836 203.936 251.036 203.936C250.336 203.936 249.736 204.436 249.536 205.036C248.936 206.436 248.836 208.036 249.136 209.636C249.336 210.736 251.036 210.336 250.836 209.236C250.636 208.336 250.736 207.436 250.936 206.536C250.936 206.336 251.036 206.136 251.136 205.936C251.236 205.636 250.936 205.736 251.336 205.736C251.336 205.836 251.536 206.136 251.736 206.236Z" fill="#4EDDBB"/>
<path d="M276.136 171.736C275.636 171.536 275.236 171.236 274.836 170.836C274.636 170.636 274.136 170.236 274.136 169.936C274.136 169.636 274.736 169.336 275.036 169.236C275.436 168.936 275.836 168.836 276.336 168.736C277.436 168.436 277.036 166.836 275.936 167.036C274.636 167.336 272.736 168.236 272.436 169.736C272.136 171.336 273.936 172.636 275.136 173.236C276.236 173.736 277.136 172.236 276.136 171.736Z" fill="#4EDDBB"/>
<path d="M218.136 144.736C218.136 143.636 218.136 142.536 218.136 141.536C218.136 140.436 216.436 140.336 216.436 141.436C216.436 142.036 216.436 142.736 216.436 143.336C216.436 143.636 216.436 143.936 216.436 144.236C216.436 144.436 216.436 144.536 216.436 144.736C216.436 144.936 216.436 144.936 216.336 144.836C216.036 144.936 215.036 144.436 214.736 144.336C214.136 144.036 213.536 143.736 212.936 143.336C212.036 142.736 211.036 144.236 212.036 144.836C212.836 145.336 213.736 145.836 214.636 146.136C215.436 146.436 216.336 146.736 217.136 146.536C217.936 146.136 218.136 145.436 218.136 144.736Z" fill="#788BF1"/>
<path d="M257.736 155.836C256.736 155.936 255.736 155.936 254.836 155.736C254.036 155.636 251.936 155.236 251.736 154.236C251.536 153.336 252.536 152.136 253.036 151.536C253.736 150.636 254.536 149.736 255.236 148.736C255.836 147.836 254.336 146.836 253.736 147.836C252.736 149.436 250.036 151.736 249.936 153.936C249.836 154.036 249.736 154.136 249.736 154.236C249.536 154.236 248.836 154.636 248.736 154.736C248.436 154.936 248.036 155.136 247.736 155.236C246.936 155.636 246.136 156.036 245.336 156.536C244.336 157.036 245.136 158.636 246.136 158.036C247.236 157.436 248.336 156.936 249.436 156.336C249.836 156.136 250.236 155.936 250.636 155.736C251.336 156.436 252.436 156.836 253.336 157.036C254.836 157.436 256.336 157.536 257.836 157.436C258.736 157.436 258.836 155.736 257.736 155.836Z" fill="#788BF1"/>
<path d="M219.736 147.536C219.036 146.836 218.436 146.136 217.936 145.336C217.636 144.936 217.236 144.736 216.736 144.936C216.336 145.136 216.136 145.736 216.336 146.136C216.936 147.036 217.636 147.936 218.436 148.636C219.236 149.536 220.536 148.336 219.736 147.536Z" fill="#788BF1"/>
<path d="M242.236 136.436C242.836 135.436 241.336 134.536 240.736 135.536C240.336 136.236 239.536 137.136 238.636 137.236C237.336 137.336 237.136 135.636 236.936 134.736C236.736 133.636 235.036 134.036 235.236 135.136C235.436 136.336 235.936 137.836 237.036 138.536C236.836 139.836 236.536 141.036 235.936 142.236C235.436 143.236 236.936 144.136 237.436 143.136C238.036 141.836 238.436 140.436 238.736 138.936C240.136 138.836 241.536 137.636 242.236 136.436Z" fill="#788BF1"/>
<path d="M231.936 168.336C232.736 167.536 233.636 166.836 234.436 166.036C235.236 165.336 234.136 164.036 233.236 164.736C232.336 165.536 231.436 166.336 230.536 167.136C229.036 166.436 227.136 167.336 225.536 167.836C224.436 168.136 224.836 169.836 225.936 169.536C227.136 169.136 229.036 168.136 230.136 169.036C231.436 170.036 231.236 171.936 230.536 173.136C229.936 174.136 231.436 175.036 232.036 174.036C233.036 172.336 233.136 170.036 231.936 168.336Z" fill="#788BF1"/>
<path d="M249.836 184.736C249.136 184.036 248.336 183.336 247.336 183.336C247.336 183.236 247.236 183.136 247.136 183.036C246.936 182.736 246.736 182.336 246.736 182.036C246.736 180.936 244.936 180.836 245.036 181.936C245.036 182.736 245.336 183.436 245.736 184.036C245.136 184.836 245.136 186.036 245.236 187.036C245.436 188.136 247.036 187.736 246.936 186.636C246.836 186.236 246.636 185.036 247.336 185.036C247.736 185.036 248.236 185.636 248.536 185.936C249.336 186.736 250.636 185.536 249.836 184.736Z" fill="#788BF1"/>
<path d="M218.536 176.436C219.136 175.736 219.636 174.936 220.236 174.236C220.936 173.336 219.436 172.436 218.736 173.336C218.236 174.036 217.736 174.736 217.136 175.436C216.536 175.136 215.736 175.136 215.036 175.336C213.936 175.636 214.336 177.336 215.436 177.036C216.836 176.636 217.936 177.836 217.436 179.136C217.036 180.136 218.636 180.636 219.136 179.636C219.436 178.536 219.236 177.336 218.536 176.436Z" fill="#788BF1"/>
<path d="M266.036 176.836C265.636 176.436 265.136 175.936 265.036 175.336C264.836 174.636 265.636 174.336 266.236 174.436C267.336 174.736 267.836 173.036 266.736 172.736C265.636 172.436 264.436 172.836 263.736 173.736C263.636 173.736 263.636 173.636 263.536 173.636C262.936 173.536 262.236 173.436 261.636 173.136C261.236 172.936 260.736 173.036 260.436 173.436C260.236 173.836 260.336 174.436 260.736 174.636C261.536 175.036 262.436 175.336 263.336 175.336C263.436 176.336 264.136 177.236 264.836 177.936C265.536 178.836 266.836 177.636 266.036 176.836Z" fill="#788BF1"/>
<path d="M274.636 156.836C273.836 157.136 272.836 156.736 272.436 155.936C272.036 155.136 272.636 154.036 273.536 153.736C274.636 153.436 274.236 151.736 273.136 152.036C271.336 152.636 270.236 154.536 270.736 156.336C271.236 158.036 273.236 159.036 274.936 158.536C276.136 158.236 275.736 156.536 274.636 156.836Z" fill="#788BF1"/>
<path d="M271.936 156.336C271.836 155.936 271.336 155.536 270.936 155.736C270.136 156.036 269.236 156.236 268.436 156.536C268.036 156.636 267.636 157.136 267.836 157.536C267.936 157.936 268.436 158.336 268.836 158.136C269.636 157.836 270.536 157.636 271.336 157.336C271.736 157.236 272.036 156.836 271.936 156.336Z" fill="#788BF1"/>
<path d="M214.336 162.336C212.136 162.436 209.936 162.236 207.836 161.736C206.736 161.536 206.236 163.136 207.336 163.436C209.636 163.936 211.936 164.236 214.336 164.136C215.336 164.036 215.436 162.336 214.336 162.336Z" fill="#788BF1"/>
<path d="M207.436 162.236C207.136 160.636 205.736 159.236 204.036 159.336C202.936 159.436 202.836 161.136 203.936 161.036C204.836 161.036 205.636 161.736 205.736 162.636C205.836 163.736 205.036 164.636 204.136 165.136C203.136 165.736 203.936 167.236 204.936 166.636C206.536 165.736 207.836 164.036 207.436 162.236Z" fill="#788BF1"/>
<path d="M229.236 191.336C229.336 191.236 229.436 191.236 229.436 191.136L232.236 186.736C232.836 185.836 231.336 184.836 230.736 185.836L227.936 190.236C227.736 190.536 227.736 190.736 227.836 190.936C226.336 190.736 224.736 191.636 223.936 192.936C223.336 193.836 224.836 194.836 225.436 193.836C225.936 193.036 226.936 192.436 227.836 192.636C228.836 192.836 229.436 194.236 228.636 194.936C227.836 195.736 229.036 197.036 229.836 196.236C231.336 194.836 231.036 192.336 229.236 191.336Z" fill="#788BF1"/>
<path d="M214.936 194.736C215.936 193.636 216.936 192.436 218.036 191.336C218.736 190.536 217.636 189.236 216.836 190.036C215.736 191.236 214.636 192.436 213.636 193.636C213.536 193.736 213.536 193.836 213.536 193.836C212.436 193.436 211.136 193.436 209.936 194.036C208.936 194.536 209.736 196.036 210.736 195.536C213.236 194.236 215.536 196.736 214.536 199.236C214.136 200.236 215.736 200.736 216.236 199.736C216.936 197.836 216.236 195.936 214.936 194.736Z" fill="#788BF1"/>
<path d="M263.336 190.936C262.536 191.036 261.836 190.436 261.036 190.136C260.336 189.936 259.436 190.036 258.836 190.536C257.536 191.536 257.736 193.636 258.036 195.036C258.336 196.136 260.036 195.736 259.736 194.636C259.536 193.936 259.036 191.636 260.336 191.736C261.336 191.836 262.036 192.636 263.136 192.536C264.336 192.636 264.436 190.836 263.336 190.936Z" fill="#788BF1"/>
<path d="M214.236 127.536C213.836 126.536 212.236 126.836 212.536 127.936C213.136 129.736 211.136 131.136 209.736 129.836C208.936 129.136 207.636 130.236 208.436 131.036C209.636 132.136 211.436 132.436 212.836 131.536C214.136 130.636 214.736 129.036 214.236 127.536Z" fill="#788BF1"/>
<path d="M214.636 132.436C214.236 131.736 213.736 131.036 213.336 130.236C212.736 129.236 211.236 130.036 211.836 131.036C212.236 131.736 212.736 132.436 213.136 133.236C213.636 134.236 215.136 133.436 214.636 132.436Z" fill="#788BF1"/>
<path d="M254.436 127.236C253.336 129.136 250.536 127.436 251.736 125.536C252.336 124.536 250.836 123.736 250.236 124.636C249.336 126.136 249.736 128.336 251.336 129.336C252.936 130.236 255.036 129.636 255.936 128.036C256.536 127.236 255.036 126.336 254.436 127.236Z" fill="#788BF1"/>
<path d="M226.436 255.336C218.436 268.136 203.536 272.236 190.736 264.236C177.936 256.236 171.936 238.436 180.336 225.836C190.736 210.336 205.836 209.836 218.636 217.836C231.436 225.936 234.436 242.536 226.436 255.336Z" fill="#4EDDBB"/>
<path d="M183.336 219.336C182.736 218.336 181.336 219.236 181.836 220.236C182.336 221.136 183.236 222.636 182.336 223.536C181.636 224.136 180.536 224.036 179.636 224.036C178.536 223.936 178.536 225.636 179.636 225.736C181.136 225.836 182.936 225.736 183.836 224.436C185.036 222.736 184.236 220.836 183.336 219.336Z" fill="#4EDDBB"/>
<path d="M213.135 208.836C212.135 209.336 210.735 208.536 210.635 207.436C210.535 206.336 208.735 206.336 208.935 207.436C209.035 208.336 209.435 209.036 210.035 209.636C209.735 210.936 209.435 212.236 209.135 213.536C208.935 214.636 210.535 215.036 210.835 214.036C211.135 212.836 211.335 211.736 211.635 210.536C212.435 210.736 213.335 210.736 214.135 210.336C215.035 209.936 214.135 208.436 213.135 208.836Z" fill="#4EDDBB"/>
<path d="M233.535 231.836C232.435 231.736 231.935 230.436 232.835 229.736C233.735 229.136 232.835 227.636 231.935 228.236C231.035 228.936 230.635 229.936 230.635 230.836C229.735 231.436 228.735 232.036 227.735 232.436C226.735 232.836 227.135 234.536 228.235 234.136C229.335 233.736 230.335 233.236 231.335 232.536C231.835 233.136 232.535 233.536 233.535 233.636C234.735 233.636 234.735 231.836 233.535 231.836Z" fill="#4EDDBB"/>
<path d="M218.336 267.436C217.736 265.836 215.836 264.736 214.236 265.636C212.736 266.436 212.436 268.536 213.536 269.736C214.236 270.536 215.536 269.336 214.736 268.536C214.336 268.136 214.636 267.336 215.036 267.136C215.636 266.836 216.436 267.336 216.636 267.936C217.036 268.936 218.736 268.536 218.336 267.436Z" fill="#4EDDBB"/>
<path d="M190.536 262.036C189.136 263.336 187.836 264.736 186.736 266.336C185.836 265.636 184.636 265.636 183.736 266.136C182.736 266.636 183.636 268.136 184.636 267.636C185.536 267.136 186.436 268.136 185.936 269.036C185.436 270.036 186.936 270.836 187.436 269.936C187.836 269.236 187.936 268.436 187.736 267.736C187.936 267.636 188.036 267.536 188.136 267.436C189.136 265.936 190.336 264.536 191.736 263.236C192.636 262.536 191.336 261.336 190.536 262.036Z" fill="#4EDDBB"/>
<path d="M181.036 250.136C180.036 248.736 178.136 248.636 176.536 248.836C176.036 248.936 175.836 249.536 175.936 249.936C176.036 250.436 176.536 250.636 177.036 250.536C177.836 250.436 179.036 250.436 179.636 251.036C180.136 251.536 180.136 252.236 179.636 252.636C178.736 253.336 180.036 254.536 180.836 253.836C181.936 253.036 181.836 251.236 181.036 250.136Z" fill="#788BF1"/>
<path d="M190.536 234.036C189.636 233.536 188.936 232.936 188.136 232.236C188.336 231.236 187.836 230.136 186.936 229.636C186.036 229.036 185.136 230.536 186.036 231.136C186.236 231.236 186.436 231.536 186.436 231.836C186.236 232.036 186.136 232.236 186.136 232.436C185.836 232.736 185.336 232.636 185.036 232.336C184.636 232.036 184.036 232.236 183.836 232.636C183.536 233.036 183.736 233.536 184.136 233.836C185.036 234.536 186.336 234.436 187.236 233.736C187.936 234.436 188.836 235.036 189.636 235.536C190.636 236.136 191.436 234.636 190.536 234.036Z" fill="#788BF1"/>
<path d="M208.735 222.536C208.435 223.036 207.935 223.236 207.535 223.236C207.335 222.936 207.035 222.836 206.635 222.836C206.235 222.536 206.035 221.936 206.235 221.336C206.535 220.236 204.835 219.836 204.535 220.836C204.135 222.036 204.535 223.436 205.535 224.236C205.135 225.136 204.835 226.036 204.435 226.936C204.035 227.936 205.735 228.436 206.135 227.436C206.435 226.636 206.835 225.836 207.135 225.036C208.335 225.136 209.535 224.536 210.235 223.536C210.835 222.536 209.335 221.636 208.735 222.536Z" fill="#788BF1"/>
<path d="M212.735 241.636C211.935 240.936 210.835 240.236 209.835 240.436C209.835 240.336 209.735 240.236 209.635 240.136C208.935 239.336 208.235 238.636 207.635 237.836C206.935 237.036 205.635 238.236 206.435 239.036C207.135 239.836 207.735 240.536 208.435 241.336C207.535 242.436 207.835 244.036 208.335 245.236C208.735 246.236 210.435 245.836 210.035 244.736C209.735 244.036 209.335 243.136 209.735 242.436C210.135 241.636 211.135 242.436 211.535 242.836C212.335 243.536 213.635 242.336 212.735 241.636Z" fill="#788BF1"/>
<path d="M198.636 255.736C198.536 255.736 198.536 255.636 198.636 255.636C199.136 254.436 199.636 253.336 200.136 252.136C200.336 251.736 199.936 251.236 199.536 251.036C199.036 250.936 198.636 251.236 198.436 251.636C197.936 252.836 197.436 253.936 196.936 255.136C196.836 255.336 196.936 255.536 197.036 255.736C196.036 256.036 195.236 256.936 195.136 258.036C195.036 259.136 196.736 259.136 196.836 258.036C196.936 257.436 197.836 257.136 198.336 257.436C199.036 257.736 199.236 258.736 199.136 259.436C198.936 260.536 200.636 261.036 200.836 259.936C201.136 258.336 200.536 256.236 198.636 255.736Z" fill="#788BF1"/>
<path d="M220.236 253.836C219.336 253.136 217.936 253.036 216.836 253.636L215.236 251.936C214.436 251.136 213.236 252.336 214.036 253.136C214.636 253.736 215.236 254.336 215.736 254.936C215.336 255.836 215.536 256.936 216.236 257.736C216.936 258.636 218.136 257.336 217.436 256.536C217.136 256.136 217.236 255.536 217.636 255.236C218.136 254.836 218.936 255.036 219.436 255.436C219.836 255.736 220.436 255.536 220.636 255.136C220.736 254.536 220.536 254.136 220.236 253.836Z" fill="#788BF1"/>
<path d="M223.636 233.036C223.336 233.336 222.836 232.836 222.836 232.536C222.636 231.836 223.436 231.036 223.936 230.636C224.836 229.936 223.536 228.736 222.736 229.436C221.836 230.136 221.036 231.436 221.136 232.636C220.936 232.636 220.736 232.736 220.636 232.836C220.136 233.236 219.636 233.636 219.236 234.036C218.836 234.336 218.936 234.936 219.236 235.236C219.636 235.636 220.136 235.536 220.436 235.236C220.936 234.836 221.436 234.436 221.836 234.036C222.636 234.836 224.036 235.036 224.936 234.136C225.636 233.436 224.436 232.236 223.636 233.036Z" fill="#788BF1"/>
<path d="M230.336 250.636C231.336 251.136 232.236 249.636 231.236 249.136C229.936 248.436 228.136 249.036 227.736 250.536C227.336 252.036 228.636 253.736 230.236 253.636C231.336 253.536 231.336 251.836 230.236 251.936C229.836 251.936 229.236 251.536 229.436 251.036C229.436 250.636 229.936 250.436 230.336 250.636Z" fill="#788BF1"/>
<path d="M199.436 212.236C199.336 211.736 198.736 211.536 198.336 211.636C197.836 211.736 197.636 212.236 197.736 212.736C197.836 213.636 196.736 213.836 196.336 213.136C195.736 212.236 194.236 213.036 194.836 214.036C195.436 215.036 196.736 215.636 197.936 215.136C199.136 214.636 199.636 213.436 199.436 212.236Z" fill="#788BF1"/>
<path d="M199.336 72.8359C195.536 71.0359 194.036 67.0359 195.836 63.3359C197.636 59.5359 202.436 57.4359 206.036 59.3359C210.636 61.7359 211.136 65.8359 209.336 69.6359C207.536 73.3359 203.036 74.6359 199.336 72.8359Z" fill="#4EDDBB"/>
<path d="M199.036 59.6359C198.736 58.5359 197.136 59.0359 197.336 60.1359V60.2359C197.336 60.2359 197.236 60.3359 197.136 60.4359C197.136 60.4359 197.036 60.5359 196.936 60.5359C196.936 60.5359 196.936 60.5359 196.836 60.5359C195.936 59.9359 195.036 61.4359 195.936 62.0359C197.536 62.7359 199.436 61.2359 199.036 59.6359Z" fill="#4EDDBB"/>
<path d="M209.436 71.9359C208.436 71.1359 206.936 70.4359 205.736 71.2359C204.736 71.9359 204.336 73.2359 205.136 74.2359C205.836 75.1359 207.036 73.8359 206.336 73.0359C206.436 73.1359 206.336 73.0359 206.436 72.8359C206.536 72.7359 206.636 72.6359 206.836 72.6359C207.436 72.6359 208.036 73.1359 208.536 73.4359C209.436 74.0359 210.336 72.5359 209.436 71.9359Z" fill="#4EDDBB"/>
<path d="M211.036 62.8359C210.736 62.9359 210.236 62.9359 210.036 62.5359C209.836 62.2359 210.036 61.8359 210.336 61.6359C211.236 61.0359 210.436 59.5359 209.436 60.1359C208.436 60.8359 207.936 62.1359 208.536 63.2359C209.036 64.3359 210.436 64.8359 211.536 64.4359C212.536 64.1359 212.136 62.4359 211.036 62.8359Z" fill="#4EDDBB"/>
<path d="M204.135 60.5359C204.035 60.0359 203.235 60.2359 203.335 60.7359C203.435 61.2359 203.035 61.7359 202.635 61.8359C202.135 61.9359 201.735 61.5359 201.535 61.0359C201.435 60.5359 200.535 60.7359 200.735 61.2359C200.935 61.9359 201.435 62.4359 202.035 62.6359C202.135 63.0359 202.235 63.4359 202.335 63.8359C202.435 64.3359 203.335 64.1359 203.135 63.6359C203.035 63.3359 202.935 62.9359 202.935 62.6359C203.835 62.4359 204.335 61.4359 204.135 60.5359Z" fill="#788BF1"/>
<path d="M201.236 65.9359C200.636 65.6359 199.936 65.5359 199.336 65.6359C198.936 65.2359 198.336 65.1359 197.836 65.2359C197.336 65.3359 197.536 66.2359 198.036 66.0359C198.236 65.9359 198.436 66.0359 198.636 66.1359C198.636 66.3359 198.736 66.4359 198.936 66.5359C199.136 66.9359 198.936 67.4359 198.436 67.6359C197.936 67.8359 198.336 68.6359 198.836 68.3359C199.536 68.0359 199.936 67.2359 199.736 66.4359C200.036 66.4359 200.436 66.5359 200.736 66.6359C201.336 66.9359 201.736 66.2359 201.236 65.9359Z" fill="#788BF1"/>
<path d="M206.336 67.8359C205.736 67.4359 205.036 67.2359 204.236 67.2359L203.836 65.8359C203.736 65.3359 202.836 65.5359 203.036 66.0359C203.136 66.5359 203.336 66.9359 203.436 67.4359C203.436 67.5359 203.536 67.6359 203.636 67.7359C203.536 68.3359 203.436 68.9359 203.336 69.5359C203.236 70.0359 204.036 70.3359 204.136 69.7359L204.436 68.0359C204.936 68.1359 205.436 68.2359 205.836 68.5359C206.436 68.8359 206.836 68.1359 206.336 67.8359Z" fill="#788BF1"/>
<path d="M209.836 67.4359C210.136 67.9359 210.836 67.4359 210.636 67.0359C210.236 66.3359 209.236 66.5359 208.936 67.2359C208.436 68.1359 209.336 68.9359 209.936 69.3359C210.436 69.6359 210.836 68.9359 210.336 68.6359C210.136 68.4359 209.636 68.1359 209.636 67.8359C209.636 67.7359 209.636 67.6359 209.736 67.6359C209.736 67.5359 209.736 67.4359 209.836 67.4359Z" fill="#788BF1"/>
<path d="M199.536 73.3359C199.436 72.8359 199.336 72.4359 199.336 71.9359C199.336 71.6359 199.036 71.4359 198.836 71.5359C198.136 71.7359 197.536 72.0359 196.836 72.2359C196.336 72.4359 196.536 73.2359 197.036 73.0359C197.536 72.8359 198.036 72.6359 198.536 72.5359C198.536 72.8359 198.636 73.2359 198.736 73.5359C198.836 74.0359 199.636 73.8359 199.536 73.3359Z" fill="#788BF1"/>
<path d="M206.236 57.7359C205.636 58.7359 204.336 58.4359 204.036 57.3359C203.936 56.8359 203.136 57.0359 203.236 57.5359C203.636 59.4359 206.036 59.7359 206.936 58.1359C207.236 57.7359 206.536 57.2359 206.236 57.7359Z" fill="#788BF1"/>
<path d="M168.236 160.836C163.636 158.636 161.836 153.736 164.036 149.236C166.236 144.636 172.036 142.036 176.536 144.436C182.036 147.336 182.736 152.436 180.536 156.936C178.336 161.436 172.836 163.036 168.236 160.836Z" fill="#4EDDBB"/>
<path d="M174.636 164.236C175.136 164.036 175.236 163.636 175.136 163.136C174.836 161.736 174.536 160.336 174.236 158.936C174.136 158.436 173.536 158.236 173.136 158.436C172.636 158.636 172.536 159.036 172.636 159.536C172.936 160.936 173.236 162.336 173.536 163.736C173.636 164.236 174.236 164.436 174.636 164.236Z" fill="#4EDDBB"/>
<path d="M165.136 152.536C166.136 152.936 166.936 151.436 165.936 150.936C164.436 150.336 162.936 149.736 161.336 149.136C160.336 148.736 159.536 150.236 160.536 150.736C162.136 151.336 163.636 151.936 165.136 152.536Z" fill="#4EDDBB"/>
<path d="M178.036 151.536C179.636 151.536 181.236 151.536 182.836 151.536C183.936 151.536 183.836 149.836 182.736 149.836C181.136 149.836 179.536 149.836 177.936 149.836C176.836 149.836 176.936 151.536 178.036 151.536Z" fill="#4EDDBB"/>
<path d="M183.636 152.636C184.736 152.836 185.036 151.136 183.936 150.936C183.736 150.936 183.636 150.636 183.836 150.536C184.236 150.336 184.536 149.936 184.336 149.436C184.236 149.036 183.636 148.736 183.236 148.936C182.436 149.236 181.836 150.036 181.936 150.936C182.136 151.736 182.836 152.436 183.636 152.636Z" fill="#4EDDBB"/>
<path d="M173.536 166.236C173.736 165.836 173.936 165.536 174.136 165.136C174.236 165.036 174.336 164.836 174.336 164.736C174.436 164.936 174.536 165.136 174.736 165.336C175.436 166.236 176.836 165.236 176.136 164.336C175.836 163.936 175.736 163.436 175.336 163.136C174.936 162.736 174.336 162.636 173.836 162.836C173.336 163.036 173.036 163.436 172.836 163.936C172.536 164.436 172.236 164.936 171.936 165.536C171.536 166.536 173.036 167.236 173.536 166.236Z" fill="#4EDDBB"/>
<path d="M158.736 151.136C159.636 151.136 160.936 151.036 161.536 150.336C162.536 149.436 161.436 148.336 160.936 147.536C160.336 146.636 158.836 147.536 159.536 148.536C159.736 148.736 159.836 149.036 160.036 149.236C159.936 149.236 159.836 149.236 159.736 149.336C159.436 149.436 159.036 149.436 158.736 149.436C157.536 149.436 157.636 151.136 158.736 151.136Z" fill="#4EDDBB"/>
<path d="M171.936 150.836C171.736 150.336 171.736 149.936 171.736 149.436C171.736 149.336 171.736 149.336 171.736 149.236C172.036 148.936 172.236 148.436 172.436 148.036C172.536 147.636 172.936 146.836 172.636 146.336C172.536 146.136 172.236 146.136 172.036 146.236C172.036 146.236 172.036 146.236 171.936 146.236C171.736 146.336 171.736 146.636 171.836 146.836C171.736 147.036 171.636 147.536 171.536 147.636C171.436 148.036 171.236 148.436 170.936 148.636C170.136 149.136 169.436 148.236 168.936 147.736C168.536 147.336 168.036 147.936 168.336 148.336C168.936 149.036 169.836 149.736 170.736 149.636C170.736 150.136 170.836 150.536 171.036 151.036C171.336 151.636 172.136 151.336 171.936 150.836Z" fill="#788BF1"/>
<path d="M178.236 156.836C178.636 157.136 179.236 156.536 178.836 156.236C178.536 156.036 178.136 155.736 178.036 155.336C178.136 155.236 178.136 155.136 178.136 155.036C178.336 154.636 179.036 154.536 179.336 154.336C179.836 154.036 179.336 153.336 178.836 153.636C178.336 153.936 177.636 154.136 177.336 154.636C176.936 154.536 176.536 154.536 176.236 154.436C175.736 154.336 175.536 155.236 176.036 155.336C176.436 155.436 176.836 155.436 177.136 155.536C177.336 155.936 177.836 156.436 178.236 156.836Z" fill="#788BF1"/>
<path d="M169.136 158.936C169.436 158.636 169.836 158.336 170.236 158.236C170.636 158.136 171.536 158.336 171.136 158.936C170.836 159.436 171.636 159.836 171.936 159.336C172.236 158.836 172.136 158.136 171.636 157.736C171.836 157.336 172.036 156.836 172.236 156.436C172.436 155.936 171.636 155.536 171.436 156.036C171.236 156.436 171.036 156.936 170.836 157.336C170.036 157.136 169.236 157.636 168.536 158.136C168.236 158.536 168.736 159.236 169.136 158.936Z" fill="#788BF1"/>
<path d="M166.736 154.536C167.136 154.636 167.536 154.736 167.936 154.936C168.436 155.136 168.836 154.436 168.336 154.136C167.836 153.936 167.336 153.736 166.836 153.636C166.736 153.136 166.236 152.636 165.636 152.536C165.136 152.436 164.936 153.336 165.436 153.436C165.636 153.436 165.936 153.636 165.936 153.936C165.936 154.036 165.836 154.336 165.636 154.236C165.136 153.936 164.736 154.736 165.236 155.036C165.836 155.236 166.436 155.036 166.736 154.536Z" fill="#788BF1"/>
<path d="M177.636 148.536C177.936 148.036 178.336 147.636 178.736 147.236C179.336 147.536 180.036 147.336 180.636 147.136C181.136 146.936 180.836 146.136 180.336 146.336C180.036 146.436 179.336 146.736 179.036 146.436C178.836 146.136 179.036 145.636 179.036 145.436C179.236 144.936 178.336 144.736 178.136 145.236C178.036 145.636 177.936 146.136 178.036 146.636C177.636 147.036 177.236 147.536 176.836 148.036C176.636 148.436 177.236 149.036 177.636 148.536Z" fill="#788BF1"/>
<path d="M172.036 141.536C171.736 141.936 171.436 142.336 171.236 142.736C171.136 142.736 171.036 142.836 171.036 142.836C170.836 142.736 170.636 142.536 170.536 142.336C170.336 141.836 169.536 142.236 169.836 142.736C170.136 143.336 170.536 143.636 171.136 143.736C171.336 144.136 171.536 144.536 171.836 144.936C172.236 145.336 172.836 144.736 172.436 144.336C172.236 144.036 172.036 143.736 171.936 143.336C172.236 142.836 172.536 142.336 172.936 141.936C173.136 141.436 172.336 141.036 172.036 141.536Z" fill="#788BF1"/>
<path d="M254.036 46.4359C253.036 50.8359 252.036 55.3359 251.036 59.7359C249.936 64.4359 248.836 69.2359 247.636 73.9359C246.636 78.0359 245.636 82.1359 244.536 86.2359C243.836 89.0359 243.036 91.8359 242.336 94.6359C241.936 96.1359 241.436 97.7359 241.036 99.2359C239.436 104.936 237.736 110.636 236.036 116.236C234.736 120.336 233.436 124.536 232.036 128.636C230.136 134.236 228.236 139.736 226.236 145.236C224.736 149.436 223.136 153.536 221.436 157.636C219.536 162.436 217.536 167.236 215.436 172.036C213.836 175.736 212.136 179.436 210.336 183.136C208.836 186.336 207.236 189.636 205.536 192.836C205.236 193.536 204.836 194.236 204.536 194.936C203.136 197.636 201.736 200.336 200.236 203.036C198.236 206.836 196.136 210.736 193.936 214.436C192.236 217.336 190.436 220.336 188.636 223.136C188.336 223.636 187.936 224.236 187.636 224.736C185.936 227.436 184.136 230.136 182.236 232.736C180.736 234.836 179.136 237.036 177.436 239.036C177.036 239.136 176.736 239.136 176.336 239.236C174.036 239.736 171.936 240.036 170.136 240.436C165.336 241.336 162.236 241.836 161.236 241.936C160.936 241.936 160.836 242.036 160.836 242.036C160.836 242.036 160.736 241.836 160.536 241.336C163.436 240.936 166.236 238.736 168.236 236.636C170.536 234.236 172.536 231.536 174.536 228.736C175.036 228.036 175.536 227.336 175.936 226.636C177.336 224.536 178.736 222.336 180.036 220.236C181.136 218.436 182.136 216.736 183.236 215.036C184.236 213.536 185.136 211.936 186.036 210.336C187.836 207.336 189.536 204.336 191.236 201.336C193.536 197.236 195.736 193.036 197.836 188.936C199.636 185.436 201.336 181.836 203.036 178.236C204.636 174.936 206.136 171.536 207.636 168.236C209.336 164.336 211.036 160.436 212.636 156.436C214.636 151.436 216.536 146.536 218.436 141.436C220.036 137.136 221.536 132.836 222.936 128.536C224.636 123.336 226.336 118.236 227.936 113.036C229.236 108.736 230.536 104.436 231.736 100.036C233.336 94.3359 234.936 88.6359 236.436 82.8359C237.636 78.1359 238.836 73.4359 239.936 68.7359C240.936 64.6359 241.936 60.5359 242.836 56.4359C243.936 51.8359 244.936 47.2359 245.936 42.5359C246.236 41.2359 246.536 40.0359 246.736 38.7359C249.336 41.2359 251.736 43.7359 254.036 46.4359Z" fill="#FFC741"/>
<path d="M182.236 232.836C180.736 234.936 179.136 237.136 177.436 239.136C177.036 239.236 176.736 239.236 176.336 239.336C175.736 235.836 175.136 232.336 174.436 228.836C174.936 228.136 175.436 227.436 175.836 226.736C177.236 224.636 178.636 222.436 179.936 220.336C180.836 224.536 181.536 228.636 182.236 232.836Z" fill="#2D264F"/>
<path d="M193.936 214.536C192.236 217.436 190.436 220.436 188.636 223.236C187.736 218.936 186.936 214.636 186.036 210.436C187.836 207.436 189.536 204.436 191.236 201.436C192.236 205.836 193.036 210.136 193.936 214.536Z" fill="#2D264F"/>
<path d="M205.536 192.936C205.236 193.636 204.836 194.336 204.536 195.036C203.136 197.736 201.736 200.436 200.236 203.136C199.436 198.436 198.636 193.736 197.936 189.036C199.736 185.536 201.436 181.936 203.136 178.336C203.936 183.136 204.736 188.036 205.536 192.936Z" fill="#2D264F"/>
<path d="M215.436 172.136C213.836 175.836 212.136 179.536 210.336 183.236C209.436 178.236 208.636 173.236 207.736 168.236C209.436 164.336 211.136 160.436 212.736 156.436C213.536 161.736 214.536 166.936 215.436 172.136Z" fill="#2D264F"/>
<path d="M226.135 145.336C224.635 149.536 223.035 153.636 221.335 157.736C220.335 152.336 219.335 146.936 218.335 141.536C219.935 137.236 221.435 132.936 222.835 128.636C224.035 134.236 225.135 139.736 226.135 145.336Z" fill="#2D264F"/>
<path d="M235.936 116.336C234.636 120.436 233.336 124.636 231.936 128.736C230.636 123.536 229.236 118.336 227.936 113.136C229.236 108.836 230.536 104.536 231.736 100.136C233.236 105.536 234.636 110.936 235.936 116.336Z" fill="#2D264F"/>
<path d="M244.536 86.2359C243.836 89.0359 243.036 91.8359 242.336 94.6359C241.936 96.1359 241.436 97.7359 241.036 99.2359C239.436 93.8359 237.936 88.3359 236.536 82.9359C237.736 78.2359 238.936 73.5359 240.036 68.8359C241.436 74.7359 242.936 80.5359 244.536 86.2359Z" fill="#2D264F"/>
<path d="M251.036 59.7359C249.936 64.4359 248.836 69.2359 247.636 73.9359C246.136 68.1359 244.536 62.3359 242.936 56.6359C244.036 52.0359 245.036 47.4359 246.036 42.7359C247.736 48.4359 249.436 54.0359 251.036 59.7359Z" fill="#2D264F"/>
<path d="M295.836 150.436C289.536 132.636 282.936 114.836 275.936 97.2359C270.136 82.4359 263.936 67.8359 254.136 55.2359C253.436 54.3359 252.236 55.6359 252.936 56.4359C263.236 69.6359 269.436 85.3359 275.536 100.836C282.036 117.436 288.236 134.036 294.136 150.836C294.536 151.936 296.136 151.536 295.836 150.436Z" fill="white"/>
<path d="M160.536 242.636L160.436 242.336C160.436 242.336 160.336 242.136 160.136 241.636C158.436 236.936 151.636 217.036 133.936 155.836C115.936 93.3359 115.736 47.7359 173.836 28.2359C189.736 22.8359 203.536 21.2359 216.036 23.2359C219.336 23.7359 222.536 24.5359 225.536 25.6359C228.036 26.4359 230.436 27.5359 232.836 28.7359C236.036 30.3359 239.136 32.3359 242.136 34.5359C243.836 35.8359 245.436 37.2359 247.136 38.6359C249.636 40.9359 252.036 43.4359 254.336 46.2359C263.636 57.3359 271.836 72.3359 279.236 92.1359C305.936 163.036 316.936 190.736 317.036 190.936L317.136 191.236L316.836 191.436C272.436 218.236 210.536 233.136 177.536 239.536C174.836 240.036 172.336 240.536 170.236 240.936C166.936 241.536 163.836 242.036 161.236 242.436C160.936 242.436 160.836 242.536 160.836 242.536L160.536 242.636ZM205.436 23.3359C195.936 23.3359 185.636 25.2359 174.136 29.1359C146.936 38.2359 131.236 53.7359 126.136 76.5359C121.836 95.5359 124.536 120.036 134.836 155.736C152.536 216.936 159.336 236.836 161.036 241.436C161.036 241.536 161.136 241.636 161.136 241.736C163.736 241.336 166.836 240.836 170.036 240.236C172.136 239.836 174.636 239.436 177.336 238.836C210.136 232.436 271.836 217.636 316.036 191.036C314.736 187.636 303.436 159.236 278.336 92.5359C270.936 72.8359 262.836 57.9359 253.536 46.9359C251.236 44.2359 248.836 41.7359 246.436 39.4359C244.836 37.9359 243.136 36.5359 241.536 35.3359C238.636 33.1359 235.536 31.2359 232.336 29.6359C230.036 28.4359 227.636 27.4359 225.136 26.6359C222.136 25.6359 219.036 24.8359 215.736 24.3359C212.536 23.5359 209.036 23.3359 205.436 23.3359Z" fill="#E4E9FF"/>
<path d="M308.436 171.136C308.736 171.036 308.936 170.936 309.236 170.836C305.236 160.536 299.736 146.136 292.336 126.736C292.036 126.836 291.836 126.936 291.536 127.036C298.936 146.436 304.436 160.836 308.436 171.136Z" fill="white"/>
<path d="M133.335 67.9359C125.235 85.5359 128.035 104.736 131.235 123.136C131.435 124.236 133.135 123.736 132.935 122.636C129.835 104.736 126.935 85.8359 134.835 68.7359C135.335 67.8359 133.835 66.9359 133.335 67.9359Z" fill="#E4E9FF"/>
<path d="M153.335 175.636C142.235 176.636 160.335 225.436 166.035 230.136C171.735 234.836 174.635 232.636 168.735 212.836C162.835 193.136 158.535 175.136 153.335 175.636Z" fill="#E4E9FF"/>
<path d="M233.036 35.4359C230.036 39.5359 241.736 48.0359 241.336 42.4359C240.936 36.7359 235.036 32.6359 233.036 35.4359Z" fill="#E4E9FF"/>
<path d="M316.935 189.936C267.635 215.536 214.335 233.036 159.435 241.836C158.335 242.036 158.335 243.736 159.435 243.536C214.635 234.736 268.135 217.136 317.835 191.436C318.835 190.836 317.935 189.436 316.935 189.936Z" fill="#E4E9FF"/>
<path d="M117.936 61.2359C108.836 56.2359 99.7358 51.2359 90.5358 46.2359C89.5358 45.7359 88.5358 47.1359 89.5358 47.6359C98.6358 52.6359 107.736 57.6359 116.936 62.6359C117.936 63.2359 118.936 61.7359 117.936 61.2359Z" fill="#FFC741"/>
<path d="M147.236 32.7359C140.936 22.0359 134.736 11.3359 128.736 0.435868C128.236 -0.564132 126.736 0.335868 127.236 1.33587C133.236 12.1359 139.436 22.9359 145.736 33.6359C146.336 34.6359 147.836 33.7359 147.236 32.7359Z" fill="#FFC741"/>
<path d="M175.636 16.8359C174.436 13.5359 173.336 10.3359 172.136 7.03587C171.736 6.03587 170.136 6.43587 170.436 7.53587C171.636 10.8359 172.736 14.0359 173.936 17.3359C174.336 18.3359 176.036 17.8359 175.636 16.8359Z" fill="#FFC741"/>
<path d="M328.836 103.136L331.636 120.236C332.536 125.836 323.936 128.036 323.036 122.336C322.136 116.636 321.136 110.936 320.236 105.236C319.336 99.7359 327.936 97.5359 328.836 103.136Z" fill="#A9CDFF"/>
<path d="M326.936 100.336C326.936 105.036 326.136 109.736 323.336 113.436C322.836 113.836 322.336 114.336 321.736 114.636C321.236 111.536 320.736 108.436 320.136 105.236C319.636 101.136 324.236 98.8359 326.936 100.336Z" fill="#788BF1"/>
<path d="M323.436 85.9359C332.936 85.1359 334.436 88.0359 333.336 98.7359C332.136 110.036 316.736 112.136 316.736 107.836C316.736 96.9359 315.436 86.6359 323.436 85.9359Z" fill="#A9CDFF"/>
<path d="M330.636 104.936C327.336 106.636 324.936 95.3359 325.636 90.5359C325.736 90.0359 325.236 89.5359 324.836 89.4359C321.136 88.6359 322.036 89.0359 318.336 88.9359C319.336 87.2359 320.936 86.1359 323.336 85.9359C332.836 85.1359 334.336 88.0359 333.236 98.7359C333.036 101.236 332.036 103.336 330.636 104.936Z" fill="#FF6B57"/>
<path d="M318.736 93.5359C318.836 94.3359 318.836 95.2359 318.936 96.0359C318.936 96.6359 318.136 96.7359 318.036 96.1359C317.936 95.3359 317.936 94.4359 317.836 93.6359C317.836 93.1359 318.636 93.0359 318.736 93.5359Z" fill="#2D264F"/>
<path d="M317.636 90.7359C318.136 90.7359 318.536 90.8359 318.936 91.0359C319.436 91.3359 318.836 92.0359 318.436 91.7359C318.236 91.6359 318.036 91.5359 317.736 91.5359C317.236 91.6359 317.136 90.7359 317.636 90.7359Z" fill="#2D264F"/>
<path d="M314.336 101.136C315.136 99.2359 315.836 97.3359 316.636 95.4359C316.836 94.9359 317.636 95.2359 317.436 95.7359C316.736 97.5359 316.036 99.2359 315.336 101.036C316.136 101.236 317.036 101.436 317.836 101.836C318.336 102.036 318.036 102.836 317.536 102.636C316.636 102.236 315.736 101.936 314.736 101.836C314.436 101.736 314.236 101.436 314.336 101.136Z" fill="#788BF1"/>
<path d="M323.036 94.1359C328.336 92.6359 331.736 99.8359 322.836 102.036L323.036 94.1359Z" fill="#A9CDFF"/>
<path d="M325.536 96.2359C326.036 96.1359 326.236 96.9359 325.636 97.1359C324.836 97.3359 324.236 97.9359 324.036 98.7359C323.936 99.2359 323.036 99.1359 323.136 98.6359C323.436 97.3359 324.336 96.4359 325.536 96.2359Z" fill="#788BF1"/>
<path d="M316.236 96.4359C312.136 98.5359 311.436 101.336 312.036 104.436C312.636 107.536 316.536 110.436 318.536 110.436C320.536 110.436 317.036 96.0359 316.236 96.4359Z" fill="#E4E9FF"/>
<path d="M325.336 93.5359C321.636 94.9359 318.336 97.0359 315.536 99.7359C315.136 100.136 315.736 100.836 316.136 100.436C318.936 97.7359 322.136 95.6359 325.736 94.3359C326.236 94.1359 325.936 93.3359 325.336 93.5359Z" fill="#E4E9FF"/>
<path d="M326.736 100.436C323.636 102.536 320.636 104.636 317.536 106.736C317.036 107.036 317.636 107.736 318.136 107.436C321.236 105.336 324.236 103.236 327.336 101.136C327.736 100.736 327.136 100.136 326.736 100.436Z" fill="#E4E9FF"/>
<path d="M318.436 88.9359C315.236 89.1359 314.436 84.7359 320.936 85.8359C327.336 87.0359 318.436 88.9359 318.436 88.9359Z" fill="#FF6B57"/>
<path d="M313.636 106.736C311.736 105.536 312.136 103.136 312.536 101.236C312.636 100.736 311.736 100.636 311.636 101.136C311.236 103.336 310.936 106.036 313.136 107.436C313.636 107.736 314.136 107.036 313.636 106.736Z" fill="#E4E9FF"/>
<path d="M329.236 118.236C305.436 118.236 312.336 128.236 315.836 150.236C319.336 172.336 319.336 177.936 319.336 177.936H360.936C360.936 177.936 362.636 166.636 355.736 143.336C348.836 120.036 347.836 118.236 329.236 118.236Z" fill="#E4E9FF"/>
<path d="M321.636 124.236C319.436 123.236 317.236 122.236 314.936 121.336C314.836 121.336 314.836 121.236 314.736 121.236C310.036 125.336 312.836 133.436 315.136 146.136C318.736 139.436 321.136 132.036 321.636 124.236Z" fill="#788BF1"/>
<path d="M317.736 162.936C319.336 174.636 319.336 177.936 319.336 177.936H360.936C360.936 177.936 361.736 173.036 360.236 162.936H317.736Z" fill="#2D264F"/>
<path d="M397.036 304.136C383.636 258.336 370.636 209.436 360.036 162.836C353.936 164.736 347.036 169.236 341.236 171.836C351.436 216.436 364.536 260.736 377.336 304.636H397.136C397.136 304.536 397.136 304.336 397.036 304.136Z" fill="#2D264F"/>
<path d="M339.436 172.236C333.236 170.936 325.436 168.936 319.436 166.936C308.836 212.036 303.736 258.336 304.636 304.636H323.636C322.836 260.136 329.236 215.636 339.436 172.236Z" fill="#2D264F"/>
<path d="M323.636 304.636V313.436H290.736C290.736 313.436 289.836 310.436 295.536 308.636C301.136 306.936 302.536 308.436 304.636 304.636H323.636Z" fill="#788BF1"/>
<path d="M397.136 304.636L398.436 313.436H365.136C365.136 313.436 364.236 310.436 369.936 308.636C375.536 306.936 377.236 308.936 377.336 304.636H397.136Z" fill="#788BF1"/>
<path d="M323.536 248.136C322.536 246.836 321.436 245.536 320.436 244.336C320.036 243.936 319.436 244.536 319.836 244.936C320.836 246.236 321.936 247.536 322.936 248.736C323.236 249.236 323.836 248.636 323.536 248.136Z" fill="#EF1B3A"/>
<path d="M378.836 247.536C377.236 246.536 375.636 245.536 374.036 244.636C373.536 244.336 373.136 245.136 373.636 245.336C375.236 246.336 376.836 247.336 378.436 248.236C378.936 248.636 379.336 247.836 378.836 247.536Z" fill="#EF1B3A"/>
<path d="M351.336 176.536C348.836 176.736 346.436 176.836 343.936 177.036C343.336 177.036 343.336 177.936 343.936 177.936C346.436 177.736 348.836 177.636 351.336 177.436C351.836 177.336 351.836 176.436 351.336 176.536Z" fill="#EF1B3A"/>
<path d="M304.836 308.436C304.336 308.036 303.836 307.536 303.536 306.936C303.236 306.436 302.536 306.936 302.836 307.336C303.236 308.036 303.836 308.636 304.436 309.236C304.836 309.536 305.236 308.736 304.836 308.436Z" fill="white"/>
<path d="M306.936 307.536C306.036 306.736 305.136 306.036 304.336 305.236C303.936 304.836 303.336 305.436 303.736 305.836C304.636 306.636 305.536 307.336 306.336 308.136C306.736 308.536 307.336 307.936 306.936 307.536Z" fill="white"/>
<path d="M377.136 309.036C376.836 308.436 376.436 307.836 376.136 307.236C375.836 306.736 375.136 307.136 375.336 307.636C375.636 308.236 376.036 308.836 376.336 309.436C376.736 309.936 377.436 309.536 377.136 309.036Z" fill="white"/>
<path d="M379.636 308.236C379.036 307.536 378.536 306.836 377.936 306.136C377.536 305.736 376.936 306.336 377.336 306.736C377.936 307.436 378.436 308.136 379.036 308.836C379.336 309.236 379.936 308.636 379.636 308.236Z" fill="white"/>
<path d="M284.636 115.236C277.336 104.136 269.036 91.7359 261.636 80.7359C265.836 78.2359 270.136 75.8359 274.636 73.6359C281.136 83.2359 289.036 95.3359 295.336 105.036C292.036 108.736 288.036 111.436 284.636 115.236Z" fill="#E4E9FF"/>
<path d="M277.336 77.5359C276.436 76.1359 275.536 74.8359 274.636 73.5359C270.236 75.7359 265.936 78.1359 261.636 80.6359C262.936 82.5359 264.236 84.5359 265.536 86.4359C269.136 83.0359 273.236 80.2359 277.336 77.5359Z" fill="#788BF1"/>
<path d="M292.836 102.436C300.536 107.136 315.136 115.836 323.036 120.236C331.336 124.836 329.836 142.036 321.536 137.436C311.336 131.736 296.536 123.336 286.736 117.136C283.436 115.036 281.236 109.536 283.136 105.736C283.636 104.836 284.036 103.936 284.536 103.036C289.636 104.136 287.836 101.336 292.836 102.436Z" fill="#E4E9FF"/>
<path d="M274.636 73.5359C271.836 68.4359 268.036 60.2359 265.836 60.2359C263.536 60.2359 268.336 64.1359 267.936 66.8359C267.536 69.5359 260.436 57.1359 257.736 57.7359C254.936 58.3359 262.736 63.9359 261.736 65.0359C260.736 66.1359 256.736 57.9359 254.636 58.9359C252.536 59.9359 259.636 66.3359 258.636 67.5359C257.636 68.7359 253.936 60.0359 251.936 62.0359C250.636 63.3359 255.436 68.0359 256.136 70.1359C256.836 72.2359 251.936 63.5359 250.636 65.2359C249.336 66.9359 258.936 76.4359 261.736 80.6359C264.536 84.8359 274.636 73.5359 274.636 73.5359Z" fill="#788BF1"/>
<path d="M264.636 86.5359C264.636 86.4359 264.736 86.4359 264.636 86.5359C264.736 86.4359 264.736 86.4359 264.636 86.5359C268.836 83.0359 273.036 79.7359 277.336 76.5359C277.736 76.2359 278.236 76.9359 277.836 77.2359C273.936 80.1359 270.036 83.1359 266.236 86.2359C266.236 86.3359 266.136 86.3359 266.136 86.4359L265.136 87.1359C264.836 87.4359 264.236 86.8359 264.636 86.5359Z" fill="#788BF1"/>
<path d="M295.436 107.236C295.036 106.236 294.636 105.336 294.236 104.336C294.036 103.836 293.136 104.036 293.436 104.536L294.636 107.436C294.836 108.036 295.736 107.736 295.436 107.236Z" fill="#788BF1"/>
<path d="M326.836 122.136C325.836 121.736 324.836 121.236 323.836 120.836C323.336 120.636 322.936 121.336 323.436 121.536L326.436 122.836C326.936 123.136 327.336 122.336 326.836 122.136Z" fill="#788BF1"/>
<path d="M52.8354 302.636V311.736H83.7355C83.7355 311.736 83.7354 307.436 78.5354 306.936C73.3354 306.436 72.6354 306.336 70.4354 302.636C68.2354 298.836 52.8354 302.636 52.8354 302.636Z" fill="#4EDDBB"/>
<path d="M101.936 305.036L101.736 311.636H131.836C131.836 311.636 131.836 307.336 126.636 306.836C121.436 306.336 120.136 305.236 119.536 303.836C117.736 299.936 101.936 305.036 101.936 305.036Z" fill="#4EDDBB"/>
<path d="M70.4356 302.636C69.0356 266.536 70.1356 232.836 74.1356 196.936C77.9356 202.336 81.4356 208.036 84.6356 213.836C89.7356 222.836 94.8356 232.136 99.0356 241.636C103.036 250.936 103.236 260.736 103.136 270.636C103.036 282.136 102.636 293.636 101.936 305.036L119.536 303.836C120.336 291.836 120.736 280.936 120.736 268.836C120.736 256.736 121.336 245.036 116.436 233.836C107.636 213.436 95.1356 183.536 80.8356 166.536C79.9356 165.436 78.0356 174.136 76.6356 173.836C76.2356 170.436 74.2356 167.436 70.4356 166.436C66.3356 165.336 63.3356 178.536 59.1356 178.736C53.0356 222.636 51.1356 258.336 52.8356 302.636H70.4356Z" fill="#788BF1"/>
<path d="M96.4358 182.936L95.6358 193.636L59.2358 185.036V179.036L96.4358 182.936Z" fill="#788BF1"/>
<path d="M73.2358 194.936C70.4358 193.836 67.6358 192.736 64.8358 191.636C64.3358 191.436 64.1358 192.236 64.6358 192.436C67.4358 193.536 70.2358 194.636 73.0358 195.736C73.5358 196.036 73.7358 195.136 73.2358 194.936Z" fill="#E4E9FF"/>
<path d="M108.036 247.636C106.936 248.836 105.736 249.936 104.636 251.136C104.236 251.536 104.836 252.136 105.236 251.736C106.336 250.536 107.536 249.436 108.636 248.236C109.036 247.836 108.436 247.236 108.036 247.636Z" fill="#E4E9FF"/>
<path d="M71.3357 303.836C70.9357 304.836 70.3357 305.736 69.5357 306.536C69.1357 306.936 69.7357 307.536 70.1357 307.136C71.0357 306.236 71.7357 305.236 72.1357 304.036C72.4357 303.536 71.5357 303.336 71.3357 303.836Z" fill="#FF6B57"/>
<path d="M121.136 304.936C120.536 305.636 119.936 306.336 119.436 307.036C119.136 307.436 119.736 308.036 120.036 307.636C120.636 306.936 121.236 306.236 121.736 305.536C122.136 305.036 121.536 304.436 121.136 304.936Z" fill="#FF6B57"/>
<path d="M96.4358 182.936C96.8358 179.036 97.3358 174.636 98.0358 169.636C101.536 142.336 98.4358 140.136 91.4358 138.436C73.2358 133.836 69.3358 128.836 65.9358 140.736C64.7358 145.036 63.0358 155.736 61.5358 163.536C60.4358 169.136 59.7358 174.036 59.2358 178.736C71.4358 181.136 83.9358 182.336 96.4358 182.936Z" fill="#FF6B57"/>
<path d="M95.6356 140.036C93.6356 143.636 93.2356 148.336 95.3356 151.836C96.2356 153.336 97.6356 155.036 99.3356 156.136C99.8356 145.836 98.5356 141.936 95.6356 140.036Z" fill="#788BF1"/>
<path d="M91.736 135.036C92.136 130.436 92.536 125.836 92.936 121.336C93.436 115.636 84.736 114.136 84.236 119.836L82.636 137.136C82.536 137.936 82.736 138.636 82.936 139.336C84.336 136.436 89.136 135.236 91.736 135.036Z" fill="#E4E9FF"/>
<path d="M85.9355 116.836C86.2355 121.536 87.4355 126.136 90.4355 129.636C90.9355 130.036 91.5355 130.436 92.1355 130.736C92.4355 127.536 92.7356 124.436 93.0356 121.236C93.3356 117.036 88.6355 115.136 85.9355 116.836Z" fill="#788BF1"/>
<path d="M88.4359 102.236C78.8359 102.136 77.6359 105.136 79.5359 115.636C81.5359 126.836 97.1359 127.836 96.7359 123.536C95.8359 112.636 96.4359 102.336 88.4359 102.236Z" fill="#E4E9FF"/>
<path d="M82.6359 121.736C86.0359 123.136 87.5359 111.736 86.5359 106.936C86.4359 106.536 86.8359 105.936 87.2359 105.736C90.8359 104.636 89.9359 105.136 93.6359 104.836C92.5359 103.236 90.8359 102.236 88.4359 102.136C78.8359 102.036 77.6359 105.036 79.5359 115.536C79.9359 118.136 81.1359 120.136 82.6359 121.736Z" fill="#2D264F"/>
<path d="M93.7358 109.436C93.7358 110.236 93.7358 111.136 93.7358 111.936C93.7358 112.536 94.6358 112.536 94.6358 112.036C94.6358 111.236 94.6358 110.336 94.6358 109.536C94.5358 108.936 93.7358 108.936 93.7358 109.436Z" fill="#788BF1"/>
<path d="M94.5359 106.536C94.0359 106.536 93.6359 106.636 93.2359 106.936C92.7359 107.236 93.3359 107.936 93.8359 107.536C94.0359 107.436 94.2359 107.336 94.5359 107.336C95.0359 107.336 95.1359 106.536 94.5359 106.536Z" fill="#788BF1"/>
<path d="M98.7357 116.436C97.8357 114.636 96.9357 112.736 96.0357 110.936C95.8357 110.436 95.0357 110.836 95.2357 111.336C96.0357 113.036 96.9357 114.736 97.7357 116.436C96.9357 116.736 96.1357 117.036 95.3357 117.436C94.8357 117.736 95.2357 118.436 95.7357 118.236C96.6357 117.836 97.5357 117.436 98.4357 117.236C98.7357 117.036 98.8357 116.736 98.7357 116.436Z" fill="#788BF1"/>
<path d="M92.0359 104.136C91.5359 103.436 90.3359 103.336 89.5359 103.236C88.3359 103.136 87.0359 103.236 86.0359 103.836C83.8359 105.236 84.3359 107.936 84.4359 110.136C84.2359 110.336 84.1359 110.736 84.4359 110.836C86.3359 111.936 88.8359 110.936 90.3359 109.336C91.6359 108.136 93.2359 105.836 92.0359 104.136Z" fill="#2D264F"/>
<path d="M95.0358 112.836C92.5358 120.836 93.5357 126.236 95.6357 125.436C97.7357 124.636 101.036 120.236 99.7358 116.136C98.4358 112.036 96.1358 109.336 95.0358 112.836Z" fill="#A9CDFF"/>
<path d="M100.336 115.536C100.236 115.036 99.4357 114.936 99.4357 115.536C99.6357 117.736 99.8357 120.136 98.0357 121.636C97.6357 122.036 98.2357 122.636 98.6357 122.236C100.636 120.636 100.636 117.936 100.336 115.536Z" fill="#A9CDFF"/>
<path d="M89.5358 131.636C83.6358 122.836 88.0358 112.636 88.0358 112.636L79.7357 112.236C79.2357 115.536 80.0357 125.136 69.5357 127.036C59.0357 128.936 58.6357 138.436 58.6357 138.436C58.6357 138.436 60.8357 138.836 63.9357 139.436C65.0357 138.336 66.1357 137.236 67.5357 136.436C69.1357 135.536 70.3357 138.036 68.8357 138.936C68.3357 139.236 67.7357 139.636 67.3357 140.136C75.2357 141.836 86.0357 144.636 87.3357 147.636C87.2357 147.636 95.4358 140.436 89.5358 131.636Z" fill="#2D264F"/>
<path d="M89.3356 110.336C83.9356 109.236 81.0356 116.636 90.1356 118.236L89.3356 110.336Z" fill="#E4E9FF"/>
<path d="M86.9355 112.636C86.3355 112.536 86.3355 113.436 86.8355 113.536C87.6355 113.636 88.3355 114.236 88.5355 114.936C88.6355 115.436 89.5355 115.336 89.3355 114.736C89.0355 113.636 88.1355 112.836 86.9355 112.636Z" fill="#788BF1"/>
<path d="M95.836 120.936C92.436 120.336 89.336 119.036 86.536 117.036C86.136 116.736 85.636 117.436 86.136 117.736C88.936 119.836 92.136 121.236 95.636 121.736C96.136 121.936 96.436 121.036 95.836 120.936Z" fill="#A9CDFF"/>
<path d="M98.6356 113.736C95.6356 112.936 92.4356 111.136 89.6356 109.636C89.1356 109.336 88.7356 110.136 89.2356 110.336C92.1356 111.936 95.5356 113.736 98.7356 114.636V113.736H98.6356Z" fill="#A9CDFF"/>
<path d="M129.536 156.036C141.136 149.736 152.836 143.436 164.536 137.236C162.036 133.036 159.336 128.836 156.436 124.836C146.136 130.236 133.536 137.236 123.336 142.736C124.536 147.636 128.236 151.136 129.536 156.036Z" fill="#FF6B57"/>
<path d="M158.736 140.336C160.636 139.336 162.536 138.236 164.536 137.236C162.036 133.036 159.336 128.836 156.436 124.836C154.936 125.636 153.436 126.436 151.836 127.236C154.336 131.536 156.536 135.936 158.736 140.336Z" fill="#A9CDFF"/>
<path d="M128.836 142.436C119.936 140.836 103.336 137.536 94.436 135.536C93.536 135.336 92.736 135.336 91.936 135.336C93.736 139.636 93.736 144.336 93.536 148.936C93.536 149.536 93.136 149.936 92.636 150.136C103.336 152.536 114.036 154.636 124.836 156.436C128.736 157.036 132.836 155.336 133.836 151.236C134.036 150.236 134.336 149.236 134.636 148.236C130.136 145.836 133.336 144.936 128.836 142.436Z" fill="#FF6B57"/>
<path d="M156.436 124.836C161.236 121.736 164.136 117.036 167.836 116.836C171.536 116.536 166.436 119.536 165.536 122.136C164.636 124.736 176.736 117.136 178.836 118.936C181.036 120.836 171.536 122.036 171.836 123.536C172.136 125.036 179.536 119.636 180.936 121.536C182.336 123.336 173.036 125.736 173.436 127.236C173.736 128.736 181.136 122.836 181.936 125.536C182.536 127.336 176.036 129.136 174.336 130.736C172.736 132.336 181.136 128.436 181.436 130.536C181.736 132.636 168.836 134.936 164.436 137.336C160.036 139.736 156.436 124.836 156.436 124.836Z" fill="#A9CDFF"/>
<path d="M97.036 151.136C94.836 150.836 92.636 150.336 90.536 149.536C90.036 149.336 89.836 150.136 90.336 150.336C92.536 151.136 94.736 151.736 97.036 152.036C97.536 152.136 97.536 151.236 97.036 151.136Z" fill="#788BF1"/>
<path d="M98.9358 136.436C95.7358 135.936 92.1358 134.836 88.8358 135.136C86.9358 135.336 85.3358 136.236 84.6358 138.036C84.4358 138.536 85.2358 138.736 85.4358 138.236C86.6358 135.236 90.2358 135.936 92.7358 136.336C94.7358 136.636 96.6358 136.936 98.6358 137.236C99.3358 137.336 99.5358 136.536 98.9358 136.436Z" fill="#788BF1"/>
<path d="M124.736 142.636C124.236 143.336 123.736 144.136 123.236 144.836C122.936 145.336 123.636 145.736 123.936 145.236C124.436 144.536 124.936 143.736 125.436 143.036C125.736 142.636 125.036 142.136 124.736 142.636Z" fill="#788BF1"/>
<path d="M159.136 140.936V140.836C157.136 135.936 154.936 131.036 152.636 126.136C152.436 125.636 151.636 126.036 151.936 126.536C154.036 130.936 155.936 135.436 157.836 139.936C157.836 140.036 157.836 140.036 157.836 140.136L158.336 141.236C158.636 141.736 159.336 141.436 159.136 140.936Z" fill="#A9CDFF"/>
</svg>
